<svg id="SvgjsSvg1001" width="288" height="288" xmlns="http://www.w3.org/2000/svg" version="1.1" xmlns:xlink="http://www.w3.org/1999/xlink" xmlns:svgjs="http://svgjs.com/svgjs"><defs id="SvgjsDefs1002"></defs><g id="SvgjsG1008" transform="matrix(0.9167,0,0,0.9167,11.995200000000011,11.995588943481465)"><svg xmlns="http://www.w3.org/2000/svg" width="288" height="288" enable-background="new 0 0 61.724 61.723" viewBox="0 0 61.724 61.723"><path d="M0,15.084c0-1.738,1.408-3.146,3.146-3.146l13.373-0.002c0.029,0,0.055,0.008,0.082,0.009
		c1.609-0.018,3.225,0.581,4.453,1.81c2.422,2.422,2.422,6.35,0.002,8.77c-2.42,2.421-6.348,2.421-8.771-0.002
		c-1.186-1.187-1.783-2.735-1.805-4.291H3.146C1.408,18.231,0,16.823,0,15.084z M40.668,22.618c-2.42-2.42-2.42-6.348,0.002-8.77
		c1.229-1.229,2.842-1.827,4.453-1.81c0.027-0.001,0.053-0.009,0.082-0.009l13.373,0.002c1.738,0,3.146,1.408,3.146,3.146
		c0,1.738-1.407,3.146-3.146,3.146h-7.334c-0.023,1.556-0.619,3.104-1.805,4.291C47.016,25.038,43.088,25.038,40.668,22.618z
		 M11.133,42.831h38.26c1.92,0,3.479,1.558,3.479,3.479s-1.559,3.479-3.479,3.479h-38.26c-1.92,0-3.479-1.558-3.479-3.479
		S9.213,42.831,11.133,42.831z" fill="#666666" class="color000 svgShape"></path></svg></g></svg>